<?xml version="1.0" standalone="no"?>
<!DOCTYPE svg PUBLIC "-//W3C//DTD SVG 20010904//EN"
 "http://www.w3.org/TR/2001/REC-SVG-20010904/DTD/svg10.dtd">
<svg version="1.0" xmlns="http://www.w3.org/2000/svg"
 width="786.000000pt" height="786.000000pt" viewBox="0 0 786.000000 786.000000"
 preserveAspectRatio="xMidYMid meet">
<metadata>
Created by potrace 1.14, written by Peter Selinger 2001-2017
</metadata>
<g transform="translate(0.000000,786.000000) scale(0.100000,-0.100000)"
fill="#000000" stroke="none">
<path d="M3565 7844 c-643 -62 -1242 -271 -1778 -620 -952 -621 -1585 -1610
-1746 -2731 -12 -78 -24 -186 -28 -240 -15 -188 -8 -669 12 -771 1 -9 6 -44
10 -77 58 -510 279 -1116 575 -1580 175 -273 351 -487 600 -730 217 -212 520
-437 797 -594 474 -268 1062 -447 1602 -489 190 -14 651 -7 772 13 13 2 47 6
74 10 283 34 619 122 910 236 922 361 1681 1066 2110 1962 207 430 336 909
372 1374 10 126 10 519 0 648 -26 348 -113 732 -244 1075 -261 684 -717 1291
-1304 1736 -417 315 -903 548 -1417 678 -100 26 -329 70 -417 80 -27 4 -68 9
-90 11 -22 3 -60 8 -85 11 -102 13 -588 12 -725 -2z"/>
</g>
</svg>
